<svg width="119" height="136" viewBox="0 0 119 136" fill="none" xmlns="http://www.w3.org/2000/svg">
    <path d="M119 95.625V6.375C119 2.84219 116.158 0 112.625 0H25.5C11.4219 0 0 11.4219 0 25.5V110.5C0 124.578 11.4219 136 25.5 136H112.625C116.158 136 119 133.158 119 129.625V125.375C119 123.383 118.07 121.577 116.636 120.408C115.52 116.317 115.52 104.656 116.636 100.566C118.07 99.4234 119 97.6172 119 95.625ZM34 35.5938C34 34.7172 34.7172 34 35.5938 34H91.9062C92.7828 34 93.5 34.7172 93.5 35.5938V40.9062C93.5 41.7828 92.7828 42.5 91.9062 42.5H35.5938C34.7172 42.5 34 41.7828 34 40.9062V35.5938ZM34 52.5938C34 51.7172 34.7172 51 35.5938 51H91.9062C92.7828 51 93.5 51.7172 93.5 52.5938V57.9062C93.5 58.7828 92.7828 59.5 91.9062 59.5H35.5938C34.7172 59.5 34 58.7828 34 57.9062V52.5938ZM101.309 119H25.5C20.7984 119 17 115.202 17 110.5C17 105.825 20.825 102 25.5 102H101.309C100.805 106.542 100.805 114.458 101.309 119Z" fill="#212529"/>
</svg>