<svg width="140" height="136" viewBox="0 0 140 136" fill="none" xmlns="http://www.w3.org/2000/svg">
<path d="M46.8266 109.507C46.8266 110.069 46.1774 110.519 45.3589 110.519C44.4274 110.604 43.7782 110.154 43.7782 109.507C43.7782 108.945 44.4274 108.495 45.246 108.495C46.0927 108.41 46.8266 108.86 46.8266 109.507ZM38.0484 108.242C37.8508 108.804 38.4153 109.451 39.2621 109.619C39.996 109.901 40.8427 109.619 41.0121 109.057C41.1815 108.495 40.6452 107.848 39.7984 107.595C39.0645 107.398 38.246 107.679 38.0484 108.242ZM50.5242 107.763C49.7056 107.96 49.1411 108.495 49.2258 109.141C49.3105 109.704 50.0444 110.069 50.8911 109.873C51.7097 109.676 52.2742 109.141 52.1895 108.579C52.1048 108.045 51.3427 107.679 50.5242 107.763ZM69.0968 0C29.9476 0 0 29.6124 0 68.6176C0 99.8049 19.7016 126.493 47.8427 135.885C51.4556 136.532 52.7258 134.311 52.7258 132.483C52.7258 130.739 52.6411 121.121 52.6411 115.216C52.6411 115.216 32.8831 119.434 28.7339 106.835C28.7339 106.835 25.5161 98.6519 20.8871 96.5428C20.8871 96.5428 14.4234 92.1276 21.3387 92.212C21.3387 92.212 28.3669 92.7744 32.2339 99.4675C38.4153 110.323 48.7742 107.201 52.8105 105.345C53.4597 100.845 55.2944 97.7239 57.3266 95.8678C41.5484 94.1243 25.629 91.8464 25.629 64.793C25.629 57.0595 27.7742 53.1787 32.2903 48.2292C31.5565 46.4013 29.1573 38.8646 33.0242 29.1344C38.9234 27.3064 52.5 36.7273 52.5 36.7273C58.1452 35.1525 64.2137 34.3369 70.2258 34.3369C76.2379 34.3369 82.3065 35.1525 87.9516 36.7273C87.9516 36.7273 101.528 27.2783 107.427 29.1344C111.294 38.8927 108.895 46.4013 108.161 48.2292C112.677 53.2068 115.444 57.0876 115.444 64.793C115.444 91.9308 98.8186 94.0961 83.0403 95.8678C85.6371 98.0895 87.8387 102.308 87.8387 108.916C87.8387 118.394 87.754 130.12 87.754 132.426C87.754 134.254 89.0524 136.476 92.6371 135.829C120.863 126.493 140 99.8049 140 68.6176C140 29.6124 108.246 0 69.0968 0ZM27.4355 96.9927C27.0685 97.2739 27.1532 97.9207 27.6331 98.4551C28.0847 98.905 28.7339 99.1019 29.1008 98.7363C29.4677 98.4551 29.3831 97.8082 28.9032 97.2739C28.4516 96.824 27.8024 96.6271 27.4355 96.9927ZM24.3871 94.7148C24.1895 95.0804 24.4718 95.5304 25.0363 95.8116C25.4879 96.0928 26.0524 96.0084 26.25 95.6147C26.4476 95.2491 26.1653 94.7992 25.6008 94.518C25.0363 94.3492 24.5847 94.4336 24.3871 94.7148ZM33.5323 104.726C33.0806 105.092 33.25 105.936 33.8992 106.47C34.5484 107.117 35.3669 107.201 35.7339 106.751C36.1008 106.385 35.9315 105.542 35.3669 105.007C34.746 104.361 33.8992 104.276 33.5323 104.726ZM30.3145 100.592C29.8629 100.874 29.8629 101.605 30.3145 102.252C30.7661 102.898 31.5282 103.18 31.8952 102.898C32.3468 102.533 32.3468 101.802 31.8952 101.155C31.5 100.508 30.7661 100.227 30.3145 100.592Z" fill="#212529"/>
</svg>
